<svg width="65" height="65" viewbox="0 0 723 764" xmlns="http://www.w3.org/2000/svg">
  <title>Navigo Corporation</title>
  <g fill="#FFFFFF" fill-rule="evenodd">
    <path d="M698.564 551.135c-8.117 16.09-9.205 20.767-24.232 52.996-32.936-7.71-71.797 10.69-104.179 42.79-67.347 22.235-368.668 86.037-527.582 88.854 3.1-14.108-1.553-25.644 43.554-57.354 36.381-12.006 84.949-24.752 133.211-38.73 1.586-5.671 1.965-8.673 5.859-13.377 81.859-25.898 176.948-43.58 293.368-62.125 16.46 1.9 22.65 5.58 33.216 8.644 49.826-9.685 116.928-26.091 146.785-21.698z"/>
    <path d="M408.713 562.47C401.843 382.78 364.373 231.893 298.705.284c8.708 260.396-26.001 463.738-74.147 627.467 82.892-35.182 118.992-53.057 184.155-65.283z"/>
    <path d="M403.56 563.8c67.186-13.06 187.491-18.08 253.238-10.979C576.648 358.496 387.352 78.984 298.417.03 330.683 54.268 470.632 217.462 403.56 563.8z"/>
    <path d="M722.997 649.755c-49.263-37.674-79.307-22.7-143.791 27.95-78.413 25.637-478.537 101.224-567.003 62.483 61.912 67.773 548.352-30.428 587.613-46.552 51.564-54.805 95.549-45.919 123.18-43.881z"/>
    <path d="M707.567 635.957c-21.163-48.015-83.552-36.936-135.678 12.661C487.966 678.644 60.293 760.374.23 731.225c63.923 57.378 537.483-40.317 576.744-56.44 78.638-59.871 90.434-57.144 130.592-38.828z"/>
  </g>
</svg>
